<svg width="13" height="11" viewBox="0 0 13 11" fill="none" xmlns="http://www.w3.org/2000/svg">
<path d="M2.4375 11H1.625L1.09687 9.42857H0V5.48036C0 5.04821 0.159115 4.68155 0.477344 4.38036C0.795573 4.07917 1.17812 3.92857 1.625 3.92857V1.57143C1.625 1.13929 1.78411 0.769345 2.10234 0.461607C2.42057 0.153869 2.80312 0 3.25 0H9.75C10.1969 0 10.5794 0.153869 10.8977 0.461607C11.2159 0.769345 11.375 1.13929 11.375 1.57143V3.92857C11.8219 3.92857 12.2044 4.08244 12.5227 4.39018C12.8409 4.69792 13 5.06786 13 5.5V9.42857H11.9031L11.375 11H10.5625L10.0344 9.42857H2.96562L2.4375 11ZM7.3125 3.92857H9.75V1.57143H7.3125V3.92857ZM3.25 3.92857H5.6875V1.57143H3.25V3.92857ZM1.625 7.85714H11.375V5.5H1.625V7.85714Z" fill="#828282"/>
</svg>
